<svg id="visual" viewBox="0 0 900 600" width="900" height="600" xmlns="http://www.w3.org/2000/svg" xmlns:xlink="http://www.w3.org/1999/xlink" version="1.1"><path d="M0 436L21.5 437C43 438 86 440 128.8 439.3C171.7 438.7 214.3 435.3 257.2 425.8C300 416.3 343 400.7 385.8 399.2C428.7 397.7 471.3 410.3 514.2 431.7C557 453 600 483 642.8 482C685.7 481 728.3 449 771.2 433.3C814 417.7 857 418.3 878.5 418.7L900 419L900 601L878.5 601C857 601 814 601 771.2 601C728.3 601 685.7 601 642.8 601C600 601 557 601 514.2 601C471.3 601 428.7 601 385.8 601C343 601 300 601 257.2 601C214.3 601 171.7 601 128.8 601C86 601 43 601 21.5 601L0 601Z" fill="#0086F8" stroke-linecap="round" stroke-linejoin="miter"></path></svg>