<svg id="visual" viewBox="0 0 1920 1080" width="1920" height="1080" xmlns="http://www.w3.org/2000/svg" xmlns:xlink="http://www.w3.org/1999/xlink" version="1.1"><rect x="0" y="0" width="1920" height="1080" fill="#fff"></rect><defs><linearGradient id="grad1_0" x1="43.8%" y1="0%" x2="100%" y2="100%"><stop offset="14.444444444444446%" stop-color="#ffffff" stop-opacity="1"></stop><stop offset="85.55555555555554%" stop-color="#ffffff" stop-opacity="1"></stop></linearGradient></defs><defs><linearGradient id="grad2_0" x1="0%" y1="0%" x2="56.3%" y2="100%"><stop offset="14.444444444444446%" stop-color="#ffffff" stop-opacity="1"></stop><stop offset="85.55555555555554%" stop-color="#ffffff" stop-opacity="1"></stop></linearGradient></defs><g transform="translate(1920, 0)"><path d="M0 756C-137.7 739.4 -275.4 722.8 -378 654.7C-480.6 586.7 -548.2 467.2 -605.4 349.5C-662.5 231.8 -709.3 115.9 -756 0L0 0Z" fill="#495fc2"></path></g><g transform="translate(0, 1080)"><path d="M0 -756C113.2 -704.6 226.5 -653.3 344.5 -596.7C462.5 -540.1 585.3 -478.3 654.7 -378C724.1 -277.7 740 -138.8 756 0L0 0Z" fill="#495fc2"></path></g></svg>