<svg id="visual" viewBox="0 0 900 450" width="900" height="450" xmlns="http://www.w3.org/2000/svg" xmlns:xlink="http://www.w3.org/1999/xlink" version="1.1"><path d="M0 272L21.5 275.3C43 278.7 86 285.3 128.8 287.7C171.7 290 214.3 288 257.2 280.7C300 273.3 343 260.7 385.8 274.7C428.7 288.7 471.3 329.3 514.2 335.2C557 341 600 312 642.8 294.7C685.7 277.3 728.3 271.7 771.2 270.2C814 268.7 857 271.3 878.5 272.7L900 274L900 451L878.5 451C857 451 814 451 771.2 451C728.3 451 685.7 451 642.8 451C600 451 557 451 514.2 451C471.3 451 428.7 451 385.8 451C343 451 300 451 257.2 451C214.3 451 171.7 451 128.8 451C86 451 43 451 21.5 451L0 451Z" fill="#0086F8" stroke-linecap="round" stroke-linejoin="miter"></path></svg>