<svg id="visual" viewBox="0 0 900 350" width="900" height="350" xmlns="http://www.w3.org/2000/svg" xmlns:xlink="http://www.w3.org/1999/xlink" version="1.1"><path d="M0 212L21.5 214.5C43 217 86 222 128.8 223.7C171.7 225.3 214.3 223.7 257.2 218C300 212.3 343 202.7 385.8 213.5C428.7 224.3 471.3 255.7 514.2 260.2C557 264.7 600 242.3 642.8 229C685.7 215.7 728.3 211.3 771.2 210.2C814 209 857 211 878.5 212L900 213L900 351L878.5 351C857 351 814 351 771.2 351C728.3 351 685.7 351 642.8 351C600 351 557 351 514.2 351C471.3 351 428.7 351 385.8 351C343 351 300 351 257.2 351C214.3 351 171.7 351 128.8 351C86 351 43 351 21.5 351L0 351Z" fill="#0086F8" stroke-linecap="round" stroke-linejoin="miter"></path></svg>